<svg xmlns="http://www.w3.org/2000/svg" viewBox="0 0 1200 800">
  <defs>
    <pattern id="grid" width="40" height="40" patternUnits="userSpaceOnUse">
      <path d="M 40 0 L 0 0 0 40" fill="none" stroke="#1a1a2e" stroke-width="0.5"/>
    </pattern>
    <marker id="arrow" markerWidth="10" markerHeight="7" refX="9" refY="3.5" orient="auto">
      <polygon points="0 0, 10 3.5, 0 7" fill="#5e6ad2"/>
    </marker>
  </defs>

  <style>
    @import url('https://fonts.googleapis.com/css2?family=JetBrains+Mono:wght@400;600;700&amp;display=swap');
    text { font-family: 'JetBrains Mono', 'SF Mono', monospace; }
  </style>

  <!-- Background -->
  <rect width="1200" height="800" fill="#0d1117"/>
  <rect width="1200" height="800" fill="url(#grid)"/>

  <!-- Title -->
  <text x="30" y="35" fill="#f7f8f8" font-size="18" font-weight="700">AI Stock Terminal — Layout Architecture</text>
  <text x="30" y="55" fill="#8a8f98" font-size="11">4-column trading terminal · Linear Dark × TradingView density</text>

  <!-- ====== TOP BAR ====== -->
  <rect x="30" y="80" width="1140" height="44" rx="6" fill="#0f1011"/>
  <rect x="30" y="80" width="1140" height="44" rx="6" fill="none" stroke="#23252a" stroke-width="1"/>
  <circle cx="55" cy="102" r="4" fill="#27a644"/>
  <text x="68" y="107" fill="#d0d6e0" font-size="12" font-weight="600">MARKET OPEN</text>
  <text x="400" y="107" fill="#f7f8f8" font-size="13">上证 4152.57</text>
  <text x="530" y="107" fill="#27a644" font-size="12">+0.96%</text>
  <text x="620" y="107" fill="#f7f8f8" font-size="13">创业板 3938.50</text>
  <text x="760" y="107" fill="#27a644" font-size="12">+2.84%</text>
  <text x="1080" y="107" fill="#8a8f98" font-size="11">2026-05-25</text>

  <!-- ====== ROW 1: 4 Stats ====== -->
  <!-- Emotion -->
  <rect x="30" y="140" width="270" height="100" rx="6" fill="#0f1011"/>
  <rect x="30" y="140" width="270" height="100" rx="6" fill="none" stroke="#23252a" stroke-width="1"/>
  <text x="50" y="165" fill="#8a8f98" font-size="10" font-weight="600">MARKET EMOTION</text>
  <text x="50" y="200" fill="#f7f8f8" font-size="28" font-weight="700">主升</text>
  <text x="180" y="225" fill="#5e6ad2" font-size="12">85/100</text>

  <!-- Index -->
  <rect x="315" y="140" width="270" height="100" rx="6" fill="#0f1011"/>
  <rect x="315" y="140" width="270" height="100" rx="6" fill="none" stroke="#23252a" stroke-width="1"/>
  <text x="335" y="165" fill="#8a8f98" font-size="10" font-weight="600">INDEX</text>
  <text x="335" y="200" fill="#f7f8f8" font-size="20" font-weight="700">4152.57</text>
  <text x="335" y="218" fill="#27a644" font-size="13">+0.96%</text>
  <text x="500" y="200" fill="#f7f8f8" font-size="20" font-weight="700">3938.50</text>
  <text x="500" y="218" fill="#27a644" font-size="13">+2.84%</text>

  <!-- Volume -->
  <rect x="600" y="140" width="270" height="100" rx="6" fill="#0f1011"/>
  <rect x="600" y="140" width="270" height="100" rx="6" fill="none" stroke="#23252a" stroke-width="1"/>
  <text x="620" y="165" fill="#8a8f98" font-size="10" font-weight="600">VOLUME</text>
  <text x="620" y="200" fill="#f7f8f8" font-size="24" font-weight="700">6,159 亿</text>
  <text x="620" y="222" fill="#d0d6e0" font-size="11">北向 +50 亿 · 涨 3210 / 跌 1980</text>

  <!-- AI Summary -->
  <rect x="885" y="140" width="285" height="100" rx="6" fill="#0f1011"/>
  <rect x="885" y="140" width="285" height="100" rx="6" fill="none" stroke="#5e6ad2" stroke-width="1"/>
  <text x="905" y="165" fill="#5e6ad2" font-size="10" font-weight="600">AI SUMMARY</text>
  <text x="905" y="185" fill="#d0d6e0" font-size="11">今日科技成长与新能源</text>
  <text x="905" y="202" fill="#d0d6e0" font-size="11">双主线驱动，情绪处主升</text>
  <text x="905" y="219" fill="#d0d6e0" font-size="11">阶段，赚钱效应显著。</text>

  <!-- ====== ROW 2: Main Lines ====== -->
  <rect x="30" y="255" width="1140" height="44" rx="6" fill="#0f1011"/>
  <rect x="30" y="255" width="1140" height="44" rx="6" fill="none" stroke="#23252a" stroke-width="1"/>
  <rect x="50" y="264" width="80" height="26" rx="13" fill="#5e6ad2" opacity="0.15"/>
  <text x="90" y="282" fill="#5e6ad2" font-size="11" font-weight="600" text-anchor="middle">AI 算力</text>
  <rect x="140" y="264" width="60" height="26" rx="13" fill="#5e6ad2" opacity="0.15"/>
  <text x="170" y="282" fill="#5e6ad2" font-size="11" font-weight="600" text-anchor="middle">PCB</text>
  <rect x="210" y="264" width="60" height="26" rx="13" fill="#5e6ad2" opacity="0.15"/>
  <text x="240" y="282" fill="#5e6ad2" font-size="11" font-weight="600" text-anchor="middle">电力</text>
  <rect x="280" y="264" width="80" height="26" rx="13" fill="#5e6ad2" opacity="0.15"/>
  <text x="320" y="282" fill="#5e6ad2" font-size="11" font-weight="600" text-anchor="middle">存储芯片</text>
  <rect x="370" y="264" width="70" height="26" rx="13" fill="#5e6ad2" opacity="0.15"/>
  <text x="405" y="282" fill="#5e6ad2" font-size="11" font-weight="600" text-anchor="middle">机器人</text>

  <!-- ====== ROW 3: Sector Heatmap + News ====== -->
  <!-- Sector -->
  <rect x="30" y="315" width="560" height="200" rx="6" fill="#0f1011"/>
  <rect x="30" y="315" width="560" height="200" rx="6" fill="none" stroke="#23252a" stroke-width="1"/>
  <text x="50" y="340" fill="#8a8f98" font-size="10" font-weight="600">SECTOR HEATMAP</text>

  <text x="50" y="365" fill="#d0d6e0" font-size="11">半导体</text>
  <rect x="140" y="355" width="300" height="14" rx="3" fill="#27a644" opacity="0.3"/>
  <rect x="140" y="355" width="300" height="14" rx="3" fill="none" stroke="#27a644" stroke-width="0.5"/>
  <text x="450" y="366" fill="#27a644" font-size="12" font-weight="700">+5.2%</text>

  <text x="50" y="390" fill="#d0d6e0" font-size="11">PCB</text>
  <rect x="140" y="380" width="220" height="14" rx="3" fill="#27a644" opacity="0.3"/>
  <rect x="140" y="380" width="220" height="14" rx="3" fill="none" stroke="#27a644" stroke-width="0.5"/>
  <text x="370" y="391" fill="#27a644" font-size="12" font-weight="700">+3.8%</text>

  <text x="50" y="415" fill="#d0d6e0" font-size="11">AI 算力</text>
  <rect x="140" y="405" width="170" height="14" rx="3" fill="#27a644" opacity="0.3"/>
  <rect x="140" y="405" width="170" height="14" rx="3" fill="none" stroke="#27a644" stroke-width="0.5"/>
  <text x="320" y="416" fill="#27a644" font-size="12" font-weight="700">+2.9%</text>

  <text x="50" y="440" fill="#d0d6e0" font-size="11">机器人</text>
  <rect x="140" y="430" width="140" height="14" rx="3" fill="#27a644" opacity="0.3"/>
  <rect x="140" y="430" width="140" height="14" rx="3" fill="none" stroke="#27a644" stroke-width="0.5"/>
  <text x="290" y="441" fill="#27a644" font-size="12" font-weight="700">+2.4%</text>

  <text x="50" y="465" fill="#d0d6e0" font-size="11">存储芯片</text>
  <rect x="140" y="455" width="120" height="14" rx="3" fill="#27a644" opacity="0.3"/>
  <rect x="140" y="455" width="120" height="14" rx="3" fill="none" stroke="#27a644" stroke-width="0.5"/>
  <text x="270" y="466" fill="#27a644" font-size="12" font-weight="700">+2.1%</text>

  <!-- News Impact -->
  <rect x="605" y="315" width="565" height="200" rx="6" fill="#0f1011"/>
  <rect x="605" y="315" width="565" height="200" rx="6" fill="none" stroke="#23252a" stroke-width="1"/>
  <text x="625" y="340" fill="#8a8f98" font-size="10" font-weight="600">NEWS → IMPACT</text>

  <rect x="625" y="355" width="525" height="42" rx="4" fill="#141516"/>
  <text x="640" y="373" fill="#d0d6e0" font-size="11">英伟达 Q1 超预期，盘后涨 6%</text>
  <rect x="640" y="380" width="28" height="14" rx="3" fill="#27a644" opacity="0.2"/>
  <text x="654" y="391" fill="#27a644" font-size="9" text-anchor="middle">利好</text>
  <text x="678" y="391" fill="#8a8f98" font-size="9">→ AI 算力 · 半导体 · 光模块</text>

  <rect x="625" y="405" width="525" height="42" rx="4" fill="#141516"/>
  <text x="640" y="423" fill="#d0d6e0" font-size="11">国家电网发布新型电力系统建设方案</text>
  <rect x="640" y="430" width="28" height="14" rx="3" fill="#27a644" opacity="0.2"/>
  <text x="654" y="441" fill="#27a644" font-size="9" text-anchor="middle">利好</text>
  <text x="678" y="441" fill="#8a8f98" font-size="9">→ 电力设备 · 储能 · 特高压</text>

  <rect x="625" y="455" width="525" height="42" rx="4" fill="#141516"/>
  <text x="640" y="473" fill="#d0d6e0" font-size="11">美联储 6 月暂停加息概率升至 85%</text>
  <rect x="640" y="480" width="28" height="14" rx="3" fill="#d29922" opacity="0.2"/>
  <text x="654" y="491" fill="#d29922" font-size="9" text-anchor="middle">中性</text>
  <text x="678" y="491" fill="#8a8f98" font-size="9">→ 科技股 · 成长股估值修复</text>

  <!-- ====== ROW 4: Leading Stocks Table ====== -->
  <rect x="30" y="530" width="1140" height="100" rx="6" fill="#0f1011"/>
  <rect x="30" y="530" width="1140" height="100" rx="6" fill="none" stroke="#23252a" stroke-width="1"/>
  <text x="50" y="555" fill="#8a8f98" font-size="10" font-weight="600">LEADING STOCKS</text>

  <!-- Table header -->
  <text x="50" y="580" fill="#8a8f98" font-size="10">#</text>
  <text x="90" y="580" fill="#8a8f98" font-size="10">Code</text>
  <text x="160" y="580" fill="#8a8f98" font-size="10">Name</text>
  <text x="320" y="580" fill="#8a8f98" font-size="10">±%</text>
  <text x="390" y="580" fill="#8a8f98" font-size="10">Board</text>
  <text x="470" y="580" fill="#8a8f98" font-size="10">Vol (亿)</text>
  <text x="580" y="580" fill="#8a8f98" font-size="10">Logic</text>
  <line x1="50" y1="585" x2="1150" y2="585" stroke="#23252a" stroke-width="1"/>

  <!-- Row 1 -->
  <text x="50" y="602" fill="#f7f8f8" font-size="11" font-weight="600">1</text>
  <text x="90" y="602" fill="#5e6ad2" font-size="10">002xxx</text>
  <text x="160" y="602" fill="#f7f8f8" font-size="11">深科技</text>
  <text x="320" y="602" fill="#27a644" font-size="11">+10.0%</text>
  <text x="390" y="602" fill="#5e6ad2" font-size="11" font-weight="600">3 连板</text>
  <text x="470" y="602" fill="#d0d6e0" font-size="11">32.5</text>
  <text x="580" y="602" fill="#8a8f98" font-size="10">芯片封测龙头，机构净买</text>

  <!-- Row 2 -->
  <text x="50" y="618" fill="#8a8f98" font-size="11">2</text>
  <text x="90" y="618" fill="#5e6ad2" font-size="10">300xxx</text>
  <text x="160" y="618" fill="#f7f8f8" font-size="11">中际旭创</text>
  <text x="320" y="618" fill="#27a644" font-size="11">+8.5%</text>
  <text x="390" y="618" fill="#d0d6e0" font-size="11">首板</text>
  <text x="470" y="618" fill="#d0d6e0" font-size="11">28.1</text>
  <text x="580" y="618" fill="#8a8f98" font-size="10">光模块龙头，英伟达概念</text>

  <!-- ====== ROW 5: Chart + Risk ====== -->
  <!-- Chart placeholder -->
  <rect x="30" y="645" width="700" height="130" rx="6" fill="#0f1011"/>
  <rect x="30" y="645" width="700" height="130" rx="6" fill="none" stroke="#23252a" stroke-width="1"/>
  <text x="50" y="670" fill="#8a8f98" font-size="10" font-weight="600">K-LINE (上证 60D)</text>
  <!-- simplified candlestick chart -->
  <polyline points="60,750 120,735 180,740 240,720 300,725 360,710 420,715 480,705 540,720 600,715 660,700 700,695"
    fill="none" stroke="#5e6ad2" stroke-width="1.5"/>
  <polyline points="60,755 120,740 180,745 240,735 300,738 360,728 420,730 480,720 540,732 600,725 660,715 700,708"
    fill="none" stroke="#27a644" stroke-width="1.5" opacity="0.6"/>
  <text x="380" y="770" fill="#8a8f98" font-size="9" text-anchor="middle">Candlestick + MA5/10/20 — ECharts render</text>

  <!-- Risk + Tomorrow -->
  <rect x="745" y="645" width="425" height="130" rx="6" fill="#0f1011"/>
  <rect x="745" y="645" width="425" height="130" rx="6" fill="none" stroke="#23252a" stroke-width="1"/>

  <!-- Risk (left half) -->
  <text x="765" y="670" fill="#f85149" font-size="10" font-weight="600">⚠ RISK</text>
  <text x="765" y="690" fill="#8a8f98" font-size="10">· 指数短期涨幅较大</text>
  <text x="765" y="706" fill="#8a8f98" font-size="10">· 高位股筹码松动</text>
  <text x="765" y="722" fill="#8a8f98" font-size="10">· ST 板块继续分化</text>

  <!-- Tomorrow (right half) -->
  <text x="980" y="670" fill="#5e6ad2" font-size="10" font-weight="600">☀ WATCH</text>
  <text x="980" y="690" fill="#8a8f98" font-size="10">· 观察科技持续性</text>
  <text x="980" y="706" fill="#8a8f98" font-size="10">· 北向是否继续流入</text>
  <text x="980" y="722" fill="#8a8f98" font-size="10">· 消费能否放量突破</text>

  <!-- Legend -->
  <rect x="30" y="785" width="1140" height="1" fill="#23252a"/>
  <text x="380" y="798" fill="#8a8f98" font-size="9" text-anchor="middle">
    AI Stock Terminal v1 · Linear Dark design tokens · TradingView layout density
  </text>
</svg>
